<mxfile host="65bd71144e">
    <diagram name="Page-1" id="QbVM-qhq_BF2LXNoguQ5">
        <mxGraphModel dx="578" dy="339" grid="1" gridSize="10" guides="1" tooltips="1" connect="1" arrows="1" fold="1" page="1" pageScale="1" pageWidth="850" pageHeight="1100" math="0" shadow="0">
            <root>
                <mxCell id="0"/>
                <mxCell id="1" parent="0"/>
                <mxCell id="89" style="edgeStyle=orthogonalEdgeStyle;rounded=0;orthogonalLoop=1;jettySize=auto;html=1;exitX=0.5;exitY=0;exitDx=0;exitDy=0;entryX=0.5;entryY=1;entryDx=0;entryDy=0;startArrow=classic;startFill=1;" edge="1" parent="1" source="90" target="92">
                    <mxGeometry relative="1" as="geometry"/>
                </mxCell>
                <mxCell id="90" value="&lt;font style=&quot;color: rgb(0, 0, 0);&quot;&gt;&lt;br&gt;&lt;font style=&quot;font-size: 20px;&quot;&gt;...&lt;/font&gt;&lt;br&gt;&lt;br&gt;&lt;b&gt;Cluster &lt;/b&gt;Group A&lt;/font&gt;" style="rounded=1;whiteSpace=wrap;html=1;verticalAlign=bottom;fillColor=#E6E6E6;" vertex="1" parent="1">
                    <mxGeometry x="44" y="310" width="230" height="60" as="geometry"/>
                </mxCell>
                <mxCell id="91" style="edgeStyle=orthogonalEdgeStyle;rounded=0;orthogonalLoop=1;jettySize=auto;html=1;entryX=0.5;entryY=0;entryDx=0;entryDy=0;" edge="1" parent="1" source="92" target="95">
                    <mxGeometry relative="1" as="geometry"/>
                </mxCell>
                <mxCell id="92" value="&lt;span style=&quot;font-size: 18px;&quot;&gt;Aggregator&lt;/span&gt;" style="rounded=1;whiteSpace=wrap;html=1;fillColor=#FFFFFF;strokeColor=default;fontStyle=0;fontFamily=CMU Sans Serif;strokeWidth=1;align=center;verticalAlign=middle;fontColor=#000000;" vertex="1" parent="1">
                    <mxGeometry x="236" y="240" width="100" height="30" as="geometry"/>
                </mxCell>
                <mxCell id="93" value="&lt;span style=&quot;font-size: 18px;&quot;&gt;Learner A 1&lt;/span&gt;" style="rounded=1;whiteSpace=wrap;html=1;fillColor=#FFFFFF;strokeColor=#000000;fontStyle=0;fontFamily=CMU Sans Serif;strokeWidth=1;align=center;verticalAlign=middle;fontColor=#000000;" vertex="1" parent="1">
                    <mxGeometry x="50" y="320" width="100" height="30" as="geometry"/>
                </mxCell>
                <mxCell id="94" value="&lt;span style=&quot;font-size: 18px;&quot;&gt;Learner A X&lt;/span&gt;" style="rounded=1;whiteSpace=wrap;html=1;fillColor=#FFFFFF;strokeColor=#000000;fontStyle=0;fontFamily=CMU Sans Serif;strokeWidth=1;align=center;verticalAlign=middle;fontColor=#000000;" vertex="1" parent="1">
                    <mxGeometry x="170" y="320" width="100" height="30" as="geometry"/>
                </mxCell>
                <mxCell id="95" value="&lt;font style=&quot;color: rgb(0, 0, 0);&quot;&gt;&lt;br&gt;&lt;font style=&quot;font-size: 20px;&quot;&gt;...&lt;/font&gt;&lt;br&gt;&lt;br&gt;&lt;b&gt;Cluster &lt;/b&gt;Group N&lt;/font&gt;" style="rounded=1;whiteSpace=wrap;html=1;verticalAlign=bottom;fillColor=#E6E6E6;" vertex="1" parent="1">
                    <mxGeometry x="300" y="310" width="230" height="60" as="geometry"/>
                </mxCell>
                <mxCell id="96" value="&lt;span style=&quot;font-size: 18px;&quot;&gt;Learner N 1&lt;/span&gt;" style="rounded=1;whiteSpace=wrap;html=1;fillColor=#FFFFFF;strokeColor=#000000;fontStyle=0;fontFamily=CMU Sans Serif;strokeWidth=1;align=center;verticalAlign=middle;fontColor=#000000;" vertex="1" parent="1">
                    <mxGeometry x="306" y="320" width="100" height="30" as="geometry"/>
                </mxCell>
                <mxCell id="97" value="&lt;span style=&quot;font-size: 18px;&quot;&gt;Learner A N&lt;/span&gt;" style="rounded=1;whiteSpace=wrap;html=1;fillColor=#FFFFFF;strokeColor=#000000;fontStyle=0;fontFamily=CMU Sans Serif;strokeWidth=1;align=center;verticalAlign=middle;fontColor=#000000;" vertex="1" parent="1">
                    <mxGeometry x="426" y="320" width="100" height="30" as="geometry"/>
                </mxCell>
                <mxCell id="98" value="&lt;font face=&quot;CMU Sans Serif&quot; style=&quot;font-size: 20px;&quot;&gt;...&lt;/font&gt;" style="text;html=1;align=center;verticalAlign=middle;whiteSpace=wrap;rounded=0;" vertex="1" parent="1">
                    <mxGeometry x="256" y="320" width="60" height="30" as="geometry"/>
                </mxCell>
            </root>
        </mxGraphModel>
    </diagram>
</mxfile>
